<?xml version="1.0" standalone="no"?>
<!DOCTYPE svg PUBLIC "-//W3C//DTD SVG 20010904//EN"
 "http://www.w3.org/TR/2001/REC-SVG-20010904/DTD/svg10.dtd">
<svg version="1.0" xmlns="http://www.w3.org/2000/svg"
 width="336.000000pt" height="521.000000pt" viewBox="0 0 336.000000 521.000000"
 preserveAspectRatio="xMidYMid meet">
<metadata>
Created by potrace 1.16, written by Peter Selinger 2001-2019
</metadata>
<g transform="translate(0.000000,521.000000) scale(0.035000,-0.040703)"
fill="#000000" stroke="none">
<path d="M0 11547 l0 -1253 35 -13 c27 -9 44 -28 76 -82 44 -74 81 -108 144
-135 33 -13 67 -15 239 -9 111 3 261 10 335 16 100 7 137 7 147 -2 16 -14 97
-136 164 -249 24 -41 47 -77 50 -80 4 -3 20 -25 37 -50 17 -25 55 -72 84 -106
30 -33 81 -91 114 -128 33 -37 71 -85 85 -106 14 -20 60 -84 104 -141 43 -57
95 -138 116 -179 20 -41 54 -106 73 -145 23 -43 33 -73 27 -79 -11 -11 -85
-22 -245 -36 -66 -5 -133 -12 -150 -14 -16 -3 -102 -10 -190 -16 -88 -6 -162
-13 -165 -15 -3 -1 -52 -6 -110 -10 -57 -3 -107 -8 -111 -10 -3 -3 -100 -14
-215 -25 -305 -29 -310 -30 -419 -45 -55 -8 -121 -15 -147 -15 -81 0 -78 7
-78 -169 0 -86 4 -161 8 -166 5 -6 17 -55 26 -110 10 -55 27 -136 38 -180 11
-44 26 -111 33 -150 28 -140 83 -390 90 -407 14 -35 -11 -17 -33 25 -56 100
-124 243 -137 285 -15 53 -25 14 -25 -103 0 -69 3 -125 8 -125 4 0 22 -28 40
-62 18 -35 48 -83 68 -108 19 -25 50 -69 69 -97 20 -29 39 -53 43 -53 17 0 32
-44 52 -151 12 -63 27 -124 32 -136 13 -28 3 -43 -29 -43 -15 0 -54 -11 -87
-24 -34 -13 -77 -27 -96 -30 -19 -3 -50 -9 -67 -12 l-33 -6 0 -504 c0 -277 4
-512 9 -522 35 -68 40 -137 11 -145 -20 -5 -20 -14 -20 -636 0 -590 1 -634 18
-674 28 -63 54 -138 59 -170 3 -15 9 -30 14 -33 5 -3 9 -15 9 -27 0 -13 9 -39
19 -60 22 -43 56 -175 48 -184 -4 -3 0 -15 8 -27 8 -11 15 -38 15 -59 0 -21 7
-49 16 -62 9 -13 20 -55 26 -92 13 -98 13 -97 20 -108 3 -6 9 -32 13 -58 4
-27 15 -65 25 -84 20 -41 16 -73 -9 -74 -11 0 -10 -3 7 -11 15 -8 21 -17 17
-29 -3 -10 1 -29 10 -42 9 -14 13 -32 9 -42 -4 -10 -1 -20 6 -25 9 -6 14 -37
16 -95 3 -75 6 -90 24 -102 11 -8 20 -23 20 -33 0 -10 4 -21 10 -25 5 -3 7
-24 5 -45 -2 -24 1 -40 7 -40 6 0 8 -11 5 -28 -3 -16 -1 -46 4 -68 6 -21 10
-43 9 -49 0 -5 -1 -23 -3 -39 -1 -16 -8 -31 -14 -34 -7 -2 -13 -10 -13 -18 0
-11 -9 -14 -32 -12 -32 3 -33 2 -33 -35 1 -33 -2 -37 -25 -36 -14 0 -35 -3
-48 -6 -21 -7 -22 -5 -17 17 8 32 -20 65 -41 47 -8 -6 -21 -9 -29 -5 -8 3 -15
1 -15 -4 0 -5 -11 -12 -25 -16 -31 -8 -32 -18 -3 -38 17 -12 24 -13 31 -3 5 7
6 -3 2 -25 -5 -30 -3 -38 10 -38 8 0 15 5 15 10 0 6 7 10 15 10 7 0 19 8 24
18 6 10 11 12 11 4 0 -15 -56 -72 -64 -65 -3 3 -21 -11 -40 -31 -25 -27 -31
-39 -20 -43 20 -7 46 -63 30 -63 -17 0 -48 35 -39 43 3 4 1 8 -5 8 -7 1 -18 2
-24 3 -7 0 -18 21 -24 45 -6 26 -19 50 -32 59 -21 14 -22 13 -22 -11 0 -14 5
-29 10 -32 6 -3 10 -16 10 -28 0 -13 9 -30 20 -40 11 -9 20 -28 20 -42 0 -22
-3 -24 -30 -18 l-30 6 0 -77 c0 -44 4 -76 10 -76 13 0 13 -37 0 -45 -7 -4 -10
-355 -10 -1021 l0 -1014 4800 0 4800 0 0 2252 c-1 1715 -3 2249 -12 2240 -20
-20 -44 -13 -68 18 -13 17 -29 30 -36 30 -8 0 -14 6 -14 14 0 8 -13 24 -29 36
-16 11 -31 30 -33 43 -2 16 -9 21 -25 20 -15 -2 -28 6 -39 22 -9 14 -21 25
-26 25 -12 0 -38 26 -38 38 0 5 -11 21 -25 36 -13 14 -21 26 -17 26 4 0 6 18
4 40 -3 25 0 40 7 40 6 0 11 5 11 10 0 6 -9 10 -21 10 -27 0 -19 24 9 28 12 2
22 10 22 18 0 8 3 13 8 13 25 -4 38 14 56 77 8 27 -14 37 -58 28 -36 -6 -101
27 -111 58 -5 15 -8 15 -27 -4 -15 -15 -22 -17 -28 -8 -6 9 -10 8 -17 -5 -7
-12 -12 -14 -17 -6 -4 6 -18 8 -33 5 -22 -6 -24 -4 -19 14 5 16 1 25 -19 38
-14 9 -25 23 -25 30 0 9 -11 14 -30 14 -20 0 -30 5 -30 15 0 14 -18 20 -49 15
-16 -2 -46 29 -55 58 -4 12 -11 22 -15 22 -11 0 -4 101 7 112 6 6 6 25 1 49
-5 22 -7 45 -4 50 4 5 -1 23 -9 41 -21 41 -20 68 2 68 17 -1 107 -30 127 -41
6 -4 24 -9 40 -13 17 -4 53 -18 82 -32 28 -13 57 -24 63 -24 5 0 18 -4 28 -9
9 -5 35 -16 57 -24 22 -8 63 -24 92 -36 28 -12 58 -21 66 -21 8 0 22 -9 32
-20 10 -11 24 -20 32 -20 19 0 63 -30 94 -65 22 -24 29 -27 42 -17 8 7 22 10
31 6 15 -6 16 59 16 794 l0 801 -33 25 c-19 15 -41 26 -49 26 -9 0 -31 7 -50
14 -31 13 -68 17 -175 17 -18 0 -33 4 -33 9 0 8 81 50 200 103 30 13 64 34 74
46 11 11 30 21 43 21 l23 0 0 2390 c0 1315 -4 2390 -8 2390 -9 0 -38 -119 -48
-198 -4 -29 -11 -55 -15 -58 -5 -3 -9 -27 -9 -54 0 -27 -6 -64 -14 -82 -8 -18
-22 -69 -31 -113 -17 -81 -33 -131 -40 -124 -2 2 1 27 6 54 6 28 14 70 19 95
16 90 60 316 69 360 6 25 17 81 25 125 8 44 22 116 31 160 12 62 15 149 15
383 l-1 302 -87 0 c-75 0 -89 -3 -99 -19 -7 -11 -21 -70 -32 -133 -35 -205
-40 -232 -55 -308 -9 -41 -22 -115 -30 -165 -9 -49 -22 -121 -29 -160 -8 -38
-20 -101 -26 -140 -12 -70 -30 -163 -51 -265 -17 -80 -61 -317 -70 -375 -4
-27 -17 -99 -30 -160 -12 -60 -25 -137 -30 -170 -5 -33 -16 -98 -25 -145 -29
-155 -36 -194 -50 -275 -8 -44 -18 -105 -24 -135 -33 -184 -54 -299 -58 -325
-9 -64 -75 -403 -88 -455 -8 -30 -16 -77 -19 -103 -3 -26 -12 -74 -20 -105 -8
-31 -18 -79 -21 -107 -4 -27 -11 -66 -16 -85 -9 -37 -32 -162 -54 -295 -7 -44
-19 -107 -25 -140 -7 -33 -14 -76 -16 -95 -11 -106 -17 -122 -42 -113 -9 3 4
-9 31 -27 53 -36 60 -61 26 -104 -20 -26 -20 -26 -1 -53 31 -46 32 -59 5 -109
-36 -69 -61 -94 -96 -94 -29 0 -29 -1 -23 -42 6 -42 33 -76 82 -104 18 -10 17
-13 -11 -55 -44 -65 -52 -83 -84 -178 -63 -189 -109 -467 -117 -716 -7 -236
-6 -232 -54 -240 -38 -6 -70 -37 -70 -68 0 -14 -21 -25 -174 -89 -59 -24 -74
-27 -101 -18 -43 14 -61 36 -69 84 -4 21 -13 47 -19 58 -15 24 -69 48 -108 48
-23 0 -32 7 -41 28 -19 42 -15 399 5 572 23 193 21 179 57 310 89 328 182 515
273 549 16 6 60 11 98 11 74 0 85 10 42 36 -78 48 -95 62 -115 101 -22 40 -22
45 -10 154 7 61 15 131 19 154 4 29 1 46 -8 54 -61 51 -81 72 -65 67 15 -5 17
-2 13 14 -5 19 -4 19 24 4 28 -14 30 -13 37 6 15 40 -15 290 -50 415 -17 64
-52 133 -74 147 -7 4 -15 19 -18 33 -4 14 -13 25 -21 25 -9 0 -21 11 -27 25
-6 14 -17 25 -24 25 -7 0 -27 17 -46 39 -18 21 -53 49 -78 62 -25 13 -56 34
-70 46 -14 13 -33 23 -43 23 -10 0 -26 9 -35 19 -10 11 -50 29 -90 41 -55 16
-82 30 -112 60 -45 44 -70 49 -135 24 -22 -9 -56 -15 -77 -14 -32 1 -36 -2
-31 -20 4 -14 1 -20 -12 -20 -12 0 -15 5 -10 19 7 23 -18 41 -45 34 -26 -7
-60 15 -60 38 0 11 -11 24 -25 31 -33 15 -32 23 8 39 23 10 82 14 222 13 173
-1 200 -3 299 -28 61 -16 126 -37 145 -47 20 -10 42 -19 49 -19 8 0 41 -16 73
-35 33 -19 64 -35 68 -35 4 0 16 -9 26 -20 10 -11 21 -20 26 -20 8 0 68 -50
114 -97 50 -50 98 -206 107 -348 3 -39 4 -40 38 -37 70 5 78 9 73 39 l-5 28
22 -32 c25 -38 49 -47 97 -38 34 6 35 7 28 43 -4 20 -13 49 -21 64 -8 15 -14
34 -14 43 0 42 -109 192 -201 275 -21 20 -39 40 -39 46 0 6 -11 24 -24 39 -14
16 -23 32 -21 36 3 4 -7 14 -21 23 -14 10 -33 30 -42 45 -9 15 -53 59 -97 96
-44 38 -82 72 -85 75 -29 33 -167 114 -270 158 -25 11 -61 25 -80 32 -19 8
-39 17 -45 20 -5 4 -35 13 -65 20 -30 7 -66 16 -80 21 -157 54 -551 27 -784
-53 -35 -12 -71 -18 -91 -15 -27 4 -34 2 -38 -14 -3 -12 -11 -17 -21 -13 -23
9 -30 43 -12 62 10 12 12 22 6 32 -8 12 -10 10 -10 -8 0 -19 -3 -21 -19 -12
-25 13 -34 13 -26 0 3 -5 -3 -18 -15 -30 l-20 -20 30 0 c32 0 41 -16 13 -23
-16 -4 -16 -5 1 -6 14 -1 10 -7 -18 -26 -20 -14 -43 -25 -51 -25 -8 0 -17 -4
-20 -10 -3 -5 -31 -10 -61 -10 -42 0 -54 3 -54 16 0 11 -6 14 -20 9 -11 -3
-28 -2 -37 4 -17 9 -17 10 0 16 9 4 29 5 42 3 19 -4 25 -1 25 13 0 26 26 24
33 -2 3 -12 10 -18 16 -14 13 8 15 35 2 35 -5 0 -12 10 -15 23 l-6 22 -23 -27
c-17 -21 -32 -28 -59 -28 -30 0 -37 -4 -40 -22 -2 -12 -12 -27 -24 -33 -30
-15 -54 -41 -54 -59 0 -10 -9 -16 -25 -16 -14 0 -25 -4 -25 -10 0 -5 -7 -10
-15 -10 -8 0 -15 7 -15 15 0 8 5 15 10 15 6 0 10 10 10 21 0 12 8 28 17 34 16
12 16 15 2 32 -18 20 -15 43 7 43 13 0 18 -17 15 -46 -1 -7 5 -14 13 -17 10
-4 13 3 12 26 -1 26 3 33 21 35 14 2 20 8 16 18 -3 8 0 14 6 14 17 0 13 -38
-5 -48 -14 -8 -15 -10 -1 -15 11 -4 20 3 29 23 8 19 23 32 40 36 33 7 35 15 8
39 -16 14 -25 16 -43 8 -14 -7 -29 -7 -39 -2 -20 11 -32 -4 -23 -30 3 -11 1
-22 -5 -26 -6 -4 -10 6 -10 24 0 18 -5 31 -12 31 -10 0 -9 3 1 9 11 7 11 15 0
47 l-14 39 -3 -42 c-3 -37 -6 -43 -26 -43 -38 0 -86 -12 -86 -21 0 -5 10 -9
23 -9 12 0 42 -6 66 -14 33 -9 40 -14 25 -18 -10 -3 -27 -9 -36 -13 -13 -5
-18 -2 -18 10 0 9 -5 13 -10 10 -6 -4 -8 -11 -5 -16 4 -5 -6 -9 -21 -9 -21 0
-25 -4 -21 -20 3 -12 -1 -23 -9 -28 -12 -7 -13 -19 -6 -63 6 -43 5 -58 -6 -68
-8 -8 -12 -24 -9 -37 3 -16 0 -24 -9 -24 -8 0 -14 11 -14 25 0 14 -4 25 -10
25 -5 0 -10 -7 -10 -15 0 -8 -4 -15 -9 -15 -17 0 -21 18 -11 45 10 27 -5 55
-29 55 -18 0 -12 -28 7 -34 9 -3 -3 -3 -28 -1 l-45 5 33 -16 c18 -9 31 -22 29
-28 -5 -15 -85 -45 -122 -45 -44 -1 -156 -43 -183 -68 -7 -7 -22 -13 -33 -13
-11 0 -19 -7 -19 -16 0 -9 -9 -18 -20 -21 -11 -3 -20 -9 -20 -13 0 -5 -9 -12
-20 -15 -11 -4 -18 -10 -15 -15 3 -4 -4 -6 -14 -3 -17 4 -20 -1 -23 -38 -2
-35 -6 -43 -20 -41 -10 2 -18 -2 -18 -8 0 -5 -4 -10 -10 -10 -5 0 -10 13 -10
29 0 31 -28 51 -41 29 -6 -9 -11 -9 -23 1 -14 12 -16 10 -16 -7 0 -19 13 -35
33 -38 21 -4 20 -6 -8 -15 -29 -8 -50 4 -39 23 3 4 -4 8 -15 8 -27 0 -27 16 0
23 16 4 20 11 16 26 -3 12 -1 21 5 21 5 0 7 9 3 20 -3 10 -1 28 5 40 9 17 8
20 -8 20 -10 0 -23 -5 -29 -11 -9 -9 -20 -8 -45 2 -18 7 -40 12 -49 11 -9 -2
-19 5 -23 14 -6 16 -8 15 -21 -2 -13 -17 -16 -17 -26 -4 -9 13 -10 12 -5 -3 3
-10 6 -30 6 -43 0 -13 5 -24 10 -24 6 0 10 8 10 18 0 14 7 17 45 14 56 -5 60
-22 5 -22 -22 0 -40 -4 -40 -9 0 -17 60 -23 91 -11 16 7 32 10 36 6 13 -13 -9
-19 -67 -20 -33 0 -60 -4 -60 -8 0 -5 5 -8 10 -8 6 0 10 -7 10 -15 0 -8 -4
-15 -10 -15 -5 0 -13 0 -17 0 -5 0 -8 5 -8 10 0 6 -5 14 -11 18 -6 4 -13 15
-17 25 -10 27 -120 21 -151 -9 -32 -31 -50 -34 -77 -13 -13 10 -28 19 -32 19
-23 0 -50 50 -27 50 6 0 10 -5 10 -12 0 -6 3 -8 6 -5 12 11 -16 35 -48 43 -17
3 -36 10 -42 15 -6 5 -39 28 -73 51 -35 22 -63 47 -63 55 0 7 -6 16 -13 19 -7
2 -13 14 -14 25 -2 19 -1 19 16 -2 16 -20 20 -21 33 -9 13 13 12 17 -8 32 -23
19 -40 16 -117 -24 -10 -5 -23 -6 -29 -2 -11 7 -28 -13 -28 -33 0 -15 46 -17
55 -3 3 6 15 10 26 10 11 0 17 -4 14 -10 -3 -5 -2 -17 3 -27 7 -12 5 -24 -5
-40 -18 -27 -28 -28 -67 -8 -32 17 -56 19 -56 6 0 -5 -9 -11 -19 -14 -11 -3
-20 -13 -21 -23 -1 -47 -5 -64 -14 -64 -5 0 -6 -3 -3 -7 10 -9 -25 -32 -50
-33 -12 0 -23 -6 -26 -12 -3 -10 -9 -10 -27 0 -12 7 -25 11 -28 8 -3 -3 -1 -6
3 -6 5 0 0 -7 -11 -15 -16 -12 -16 -14 -3 -15 12 0 16 -10 16 -40 0 -22 -4
-40 -8 -40 -13 0 -52 23 -61 35 -5 7 -8 7 -8 0 0 -15 13 -31 30 -38 12 -4 12
-6 -2 -6 -9 -1 -33 8 -52 20 -20 12 -36 16 -36 11 0 -6 5 -14 10 -17 16 -10
12 -35 -6 -35 -8 0 -24 19 -35 45 -11 25 -22 45 -25 45 -17 0 -64 -33 -64 -45
0 -8 -7 -15 -15 -15 -8 0 -15 -6 -15 -14 0 -8 -4 -16 -9 -18 -6 -1 -12 -16
-15 -32 -3 -16 -11 -33 -18 -38 -9 -5 -3 -8 15 -8 37 0 31 -21 -8 -32 -19 -5
-34 -3 -44 5 -12 10 -14 9 -8 -6 4 -10 7 -21 7 -23 0 -3 4 -2 10 1 5 3 11 -1
11 -9 3 -32 1 -82 -4 -128 -2 -25 -2 -64 2 -85 4 -21 4 -51 0 -68 l-7 -30 -1
28 c0 15 -4 27 -9 27 -4 0 -6 -18 -4 -40 2 -22 9 -40 16 -40 7 0 12 -23 13
-60 1 -45 -2 -60 -13 -60 -17 0 -18 -12 -2 -28 9 -9 8 -12 -5 -12 -9 0 -17 -4
-17 -9 0 -12 27 -22 43 -15 21 8 41 -25 40 -65 -1 -20 1 -28 3 -18 7 21 18 22
34 1 11 -12 11 -15 -1 -12 -8 2 -13 -4 -12 -12 1 -8 4 -37 8 -64 l7 -48 35 5
c43 7 50 14 35 29 -7 7 -12 17 -12 22 0 6 6 4 12 -2 9 -9 14 -56 15 -148 1
-75 6 -141 11 -147 4 -7 8 -59 7 -117 l-1 -104 -32 -18 c-30 -17 -31 -16 -37
3 -7 22 5 42 12 22 3 -7 13 -13 24 -13 26 0 26 44 0 62 -11 8 -21 28 -23 48
-2 27 -8 36 -25 38 -18 3 -23 -2 -23 -17 0 -29 -30 -27 -31 2 -1 12 -2 40 -3
62 -1 62 -54 96 -155 100 l-66 2 -7 54 c-5 30 -12 89 -18 132 -13 108 -24 116
-152 117 -55 0 -100 -4 -103 -10 -4 -6 -18 -10 -33 -9 -27 1 -199 -9 -277 -16
-219 -21 -289 -27 -340 -30 -79 -5 -228 -15 -285 -20 -25 -2 -97 -9 -160 -14
-63 -6 -129 -12 -147 -15 -52 -7 -69 3 -98 57 -56 107 -70 132 -83 145 -6 8
-17 23 -24 35 -6 12 -36 53 -67 91 -31 37 -69 87 -86 110 -49 68 -121 155
-212 253 -141 153 -209 246 -301 408 -18 33 -44 78 -58 100 -41 68 -37 72 69
79 50 3 232 10 402 16 171 6 427 15 570 21 143 5 348 9 455 8 107 -1 265 2
350 5 1068 48 1109 49 1103 18 -2 -7 5 -12 15 -12 19 -1 52 -23 52 -36 0 -5
16 -9 35 -9 21 0 35 5 35 13 0 15 16 16 26 1 11 -19 25 13 18 43 -5 24 -2 28
23 33 15 4 43 13 61 21 18 8 45 14 61 14 26 0 61 -26 61 -46 0 -5 15 -26 33
-46 27 -31 36 -35 55 -28 28 12 28 28 0 39 -22 8 -22 8 7 27 19 12 49 20 85
21 123 3 219 17 252 34 28 15 51 4 43 -21 -4 -14 -2 -20 9 -20 11 0 13 6 7 28
-7 22 -3 32 20 55 l29 28 0 -29 c0 -27 3 -30 46 -36 63 -8 114 -8 114 2 0 4
-21 6 -46 5 l-45 -3 2 45 c2 24 0 47 -4 51 -3 4 -2 15 3 25 7 12 7 20 0 24
-13 8 -13 45 0 45 6 0 10 9 10 19 0 12 9 21 25 25 37 9 30 21 -19 33 -40 9
-45 8 -54 -11 -8 -16 -11 -5 -11 52 -1 46 3 71 9 67 6 -3 10 -17 10 -30 0 -13
7 -31 16 -40 16 -15 18 -15 33 0 15 15 14 18 -8 36 -21 17 -25 30 -27 87 -4
93 0 102 40 97 26 -4 35 -1 39 14 2 11 -4 23 -16 31 -20 12 -20 12 4 31 20 15
22 20 11 31 -11 11 -19 7 -43 -22 -16 -19 -27 -40 -25 -47 8 -19 -10 -25 -24
-8 -10 12 -9 16 4 21 10 4 15 13 12 21 -3 7 3 21 14 30 25 22 25 33 1 33 -14
0 -18 7 -17 30 1 18 6 30 15 30 7 0 11 -6 8 -13 -7 -18 38 -20 52 -3 9 11 6
17 -18 27 -26 12 -28 14 -13 26 16 12 16 14 0 27 -25 19 -22 35 7 42 20 5 23
9 15 24 -14 25 -13 30 6 30 26 0 9 25 -21 30 -33 6 -46 30 -17 30 29 0 52 10
52 24 0 6 9 22 20 36 24 30 25 44 4 36 -20 -8 -49 21 -58 57 -3 15 -11 27 -16
27 -6 0 -10 16 -10 35 0 34 1 35 40 35 29 0 40 -4 40 -15 0 -8 -8 -15 -17 -15
-45 -1 -48 -17 -12 -63 31 -42 35 -44 52 -30 15 15 19 15 35 0 15 -13 19 -13
31 0 19 20 -1 33 -51 33 -20 0 -40 5 -43 10 -3 6 1 10 9 10 10 0 13 6 10 15
-4 10 0 15 15 15 25 0 28 15 4 24 -24 10 -2 27 25 20 12 -4 22 -13 22 -20 0
-8 4 -14 8 -14 5 0 14 -11 20 -25 6 -14 16 -25 21 -25 13 0 0 43 -16 53 -7 4
-13 13 -13 18 0 19 -25 36 -63 43 -24 4 -37 12 -37 23 0 13 7 14 40 9 25 -4
40 -2 40 4 0 5 -6 10 -12 10 -7 0 -26 7 -42 15 -16 9 -47 17 -68 18 -32 2 -38
5 -38 25 0 13 4 21 9 17 6 -3 15 4 21 15 13 24 40 27 40 3 0 -14 3 -13 16 5
13 20 14 24 0 37 -8 8 -19 15 -24 15 -12 0 -23 26 -15 34 12 12 33 6 33 -9 0
-13 7 -11 40 7 52 30 52 60 0 68 l-35 6 34 18 c32 17 34 17 55 -2 11 -11 30
-22 41 -24 17 -3 13 -10 -27 -51 -26 -26 -54 -47 -62 -47 -24 0 -19 -17 6 -23
24 -7 48 8 48 29 0 22 37 16 43 -7 6 -22 27 -18 27 5 0 8 8 16 18 19 9 2 25 8
35 12 13 6 17 2 17 -16 0 -18 -3 -20 -12 -11 -18 18 -27 14 -21 -8 3 -12 -2
-29 -11 -39 -15 -17 -14 -20 11 -53 16 -19 34 -33 41 -30 18 6 15 25 -8 45
-25 21 -25 33 0 47 11 6 20 20 20 30 0 16 7 20 30 20 28 0 30 3 30 35 0 19 5
35 10 35 6 0 10 5 10 11 0 6 -9 8 -20 4 -33 -10 -21 26 12 38 27 10 10 37 -23
37 -27 0 -29 -3 -29 -40 0 -46 -11 -52 -28 -15 -15 32 -15 55 -2 55 6 0 10 9
10 20 0 11 -4 20 -10 20 -5 0 -10 9 -10 20 0 23 -21 26 -50 8 -17 -11 -22 -10
-29 0 -5 8 -23 12 -47 10 l-39 -3 43 -19 c23 -11 42 -26 42 -34 0 -7 -3 -12
-7 -10 -5 3 -23 10 -40 17 -18 7 -33 19 -33 26 0 8 -8 19 -17 25 -17 11 -17
11 0 6 12 -4 17 0 17 12 0 15 52 45 82 47 3 0 10 3 14 8 4 4 25 7 46 7 35 0
39 2 33 20 -6 17 -2 20 28 20 20 0 38 -6 40 -12 3 -7 6 -3 6 8 2 41 -62 40
-91 -1 -5 -7 -14 -6 -28 3 -27 17 -30 16 -30 -13 0 -23 -3 -25 -50 -25 -36 0
-50 -4 -50 -14 0 -25 -30 -27 -39 -3 -20 53 -21 76 -5 91 8 9 14 24 13 33 -1
10 1 26 6 36 5 11 2 24 -9 36 -9 10 -16 25 -16 34 0 19 -15 23 -25 7 -9 -14
-25 -12 -25 3 0 14 21 26 77 44 24 8 42 8 70 -2 34 -12 40 -12 59 6 23 21 75
26 73 7 -1 -7 -5 -24 -9 -38 -7 -23 -8 -24 -9 -3 -1 20 -4 21 -30 12 -24 -9
-30 -17 -33 -50 -3 -31 0 -39 13 -39 9 0 19 7 23 15 3 8 10 15 16 15 5 0 10
-7 10 -15 0 -21 27 -19 40 3 9 16 11 16 20 0 10 -16 13 -17 34 -3 22 15 25 14
45 -12 20 -27 20 -27 21 -5 0 13 6 22 15 22 8 0 15 -4 15 -10 0 -5 6 -10 14
-10 22 0 30 79 10 101 -9 10 -13 23 -9 28 9 15 35 14 35 -1 1 -7 7 1 14 18 8
18 19 35 25 38 6 4 11 19 11 34 0 20 -3 23 -12 14 -18 -18 -36 -14 -49 10 -9
16 -9 23 0 26 6 2 11 14 11 26 0 31 43 70 70 63 16 -4 20 -2 16 10 -3 8 -6 17
-6 19 0 3 -4 3 -10 -1 -5 -3 -19 0 -30 7 -17 11 -22 11 -30 -2 -8 -12 -10 -11
-10 6 0 30 37 46 95 40 35 -3 49 -8 47 -18 -2 -7 -8 -15 -13 -16 -15 -6 1 -22
21 -22 12 0 26 -13 35 -30 17 -33 14 -36 -16 -19 -28 14 -89 -14 -89 -41 0
-11 5 -20 10 -20 6 0 10 7 10 15 0 8 7 15 15 15 8 0 15 -9 15 -20 0 -11 -5
-20 -11 -20 -7 0 -9 -10 -5 -27 4 -16 7 -37 7 -47 0 -28 29 -47 46 -30 7 7 13
22 13 33 0 24 15 28 24 6 3 -8 -1 -21 -9 -29 -8 -8 -15 -18 -15 -22 0 -4 -7
-15 -15 -24 -10 -12 -13 -27 -9 -49 7 -32 8 -33 53 -31 25 2 52 2 59 1 22 -2
13 -30 -15 -43 -14 -7 -28 -19 -31 -25 -5 -19 35 -16 42 2 3 8 17 15 31 15 14
0 33 9 42 19 9 11 20 18 25 15 13 -8 9 -24 -6 -24 -18 0 -30 -33 -21 -60 4
-11 2 -20 -4 -20 -6 0 -11 5 -11 10 0 6 -9 10 -20 10 -11 0 -20 -4 -20 -10 0
-5 -12 -10 -28 -10 -17 0 -32 -8 -40 -21 -10 -16 -16 -18 -27 -9 -20 17 -37 3
-29 -23 7 -23 22 -37 39 -37 6 0 4 4 -4 9 -12 8 -13 12 -2 25 10 12 17 13 27
5 7 -6 43 -9 80 -8 45 2 69 -1 72 -9 2 -7 10 -12 18 -12 8 0 14 -4 14 -9 0
-11 -87 -19 -102 -10 -19 12 -58 -15 -58 -40 0 -23 1 -23 18 -8 37 34 79 7 54
-34 -13 -21 -16 -59 -4 -59 4 0 12 -12 19 -26 10 -21 10 -29 -2 -40 -19 -19
-25 -18 -25 6 0 26 -36 27 -49 2 -7 -14 -5 -21 9 -30 15 -9 18 -19 14 -42 -4
-18 -2 -30 4 -30 6 0 13 -10 15 -22 l4 -23 8 23 c7 22 45 32 45 11 0 -6 -7 -9
-15 -5 -11 4 -15 -2 -15 -24 0 -22 4 -28 15 -24 19 8 19 -7 0 -32 -15 -20 -20
-54 -7 -54 4 0 9 -11 10 -25 1 -19 -3 -25 -19 -25 -16 0 -20 5 -16 20 3 11 2
20 -3 20 -14 0 -30 -27 -25 -42 3 -7 -9 -28 -26 -46 -24 -25 -29 -36 -21 -44
9 -9 12 -8 12 3 0 9 7 6 18 -9 15 -19 20 -21 29 -10 6 7 13 26 15 43 2 21 9
31 28 35 15 4 26 15 30 30 7 28 40 41 40 16 0 -9 -5 -16 -11 -16 -6 0 -9 -9
-6 -19 3 -13 -1 -21 -12 -24 -9 -3 5 -3 32 0 53 4 58 -3 22 -37 -34 -32 -32
-39 14 -57 22 -9 42 -22 45 -30 5 -12 -2 -13 -38 -8 -38 6 -45 4 -49 -12 -4
-17 -4 -17 -12 1 -6 13 -4 21 3 24 15 5 16 38 2 47 -6 4 -9 14 -8 23 2 13 -6
18 -29 20 -37 4 -46 -15 -10 -20 12 -2 20 -7 19 -12 -2 -5 2 -13 10 -18 9 -7
2 -8 -19 -4 -28 5 -33 3 -33 -14 0 -11 5 -20 11 -20 6 0 9 -9 6 -19 -4 -15 2
-20 29 -26 27 -5 34 -11 34 -29 0 -17 -7 -25 -25 -28 -27 -6 -44 7 -23 15 8 4
4 8 -9 12 -13 4 -23 14 -23 21 0 8 -4 14 -10 14 -5 0 -11 19 -12 43 l-1 42 -4
-40 c-3 -22 -11 -44 -19 -48 -22 -13 -16 -24 16 -30 37 -8 41 -37 5 -37 -14 0
-25 -4 -25 -9 0 -5 11 -12 25 -15 29 -7 32 -21 8 -35 -17 -9 -17 -11 2 -28 11
-11 28 -22 38 -26 45 -17 -16 -64 -68 -51 -31 8 -45 -7 -45 -46 1 -24 1 -24
15 -7 7 11 11 25 8 33 -3 8 1 14 9 14 11 0 14 -11 11 -40 -3 -37 -1 -40 22
-40 16 0 25 -6 25 -15 0 -8 -7 -15 -15 -15 -8 0 -15 -4 -15 -10 0 -18 22 -10
47 16 16 17 22 32 17 43 -18 43 -17 61 5 61 28 0 81 27 81 41 0 6 -9 13 -20
16 -11 3 -20 9 -20 14 0 5 -13 9 -29 9 -16 0 -34 7 -41 15 -16 19 -5 34 12 17
7 -7 23 -12 36 -12 21 0 23 2 12 15 -10 12 -10 19 -2 27 9 9 12 9 12 -2 0 -9
5 -7 14 6 14 19 15 19 22 -1 4 -11 12 -23 18 -27 8 -5 7 -16 -1 -37 -10 -27
-9 -31 11 -37 36 -12 86 -12 86 0 -1 26 -17 37 -46 31 -20 -5 -25 -4 -15 3 9
7 10 12 2 16 -18 12 -12 26 10 26 12 0 32 -11 45 -25 26 -28 77 -36 68 -10 -4
8 -15 15 -27 15 -19 0 -20 1 -2 20 22 25 65 29 45 5 -7 -9 -10 -18 -7 -22 10
-10 37 18 37 38 0 14 7 19 30 19 17 0 30 5 30 11 0 6 7 3 16 -5 8 -9 24 -16
34 -16 11 0 20 -9 23 -22 3 -17 5 -14 6 10 1 21 -4 32 -13 32 -7 0 -19 6 -26
14 -8 11 -25 13 -63 9 -29 -3 -55 -10 -58 -16 -8 -12 -79 0 -79 13 0 5 15 10
33 12 23 2 32 8 32 21 0 38 53 49 87 17 24 -22 38 -26 38 -10 0 6 -7 10 -15
10 -8 0 -15 9 -15 20 0 20 15 25 44 14 13 -5 14 -9 5 -20 -9 -11 -8 -14 4 -14
10 0 14 -6 11 -15 -4 -8 -1 -15 5 -15 6 0 11 19 11 45 l0 45 -50 0 c-51 0 -71
15 -54 41 5 9 11 7 21 -7 14 -18 15 -18 28 -1 14 19 55 16 55 -4 0 -5 6 -9 14
-9 8 0 17 -7 20 -16 3 -8 11 -12 17 -9 6 4 13 -3 16 -15 l6 -21 11 23 c7 13
20 22 31 21 18 -1 45 18 45 33 0 5 -5 3 -12 -4 -16 -16 -67 -15 -101 1 -32 14
-35 27 -8 34 12 3 23 17 27 35 4 23 8 27 15 17 7 -12 9 -11 9 2 0 8 -6 24 -14
35 -15 20 -20 15 -28 -31 -3 -13 -11 -19 -23 -18 -11 1 -14 0 -7 -3 22 -10 12
-21 -25 -27 -23 -4 -40 -2 -44 5 -9 14 14 38 35 38 9 0 16 7 16 15 0 8 7 15
15 15 11 0 13 8 8 33 -3 17 -10 34 -15 35 -11 5 -10 42 2 42 6 0 10 -9 10 -20
0 -16 7 -20 30 -20 26 0 30 4 30 28 0 25 -3 27 -37 27 -32 0 -39 4 -41 23 -3
16 -10 22 -28 22 -13 0 -24 5 -24 10 0 6 11 10 25 10 14 0 25 -4 25 -10 0 -15
78 -12 83 3 3 9 7 9 20 -2 11 -9 21 -10 30 -4 6 5 31 16 55 23 37 12 45 12 52
0 15 -25 25 -1 13 31 -7 17 -9 38 -6 47 3 11 2 13 -4 6 -28 -37 -101 -45 -121
-14 -7 11 -19 20 -27 20 -8 0 -15 7 -15 15 0 8 2 15 4 15 11 0 60 -30 67 -42
7 -10 9 -9 9 3 0 9 16 21 39 29 22 7 42 19 45 26 3 9 21 14 47 14 l42 0 -24
19 c-27 21 -67 29 -86 18 -13 -8 -18 -3 -27 35 -8 37 6 42 49 18 38 -21 75
-26 75 -10 0 6 -9 10 -20 10 -12 0 -20 7 -20 16 0 9 9 18 20 21 23 6 27 28 5
37 -8 3 -15 12 -15 21 0 8 7 15 15 15 24 0 17 18 -12 34 -16 8 -22 15 -14 16
14 0 40 28 41 43 0 16 -41 6 -52 -13 -15 -23 -28 -26 -28 -6 0 8 -6 16 -12 19
-7 2 -9 8 -5 13 4 5 12 2 17 -6 8 -13 11 -13 22 2 7 9 22 18 33 20 16 3 20 11
18 41 -1 20 2 37 7 37 4 0 12 15 15 33 10 44 15 50 30 37 9 -8 15 -8 20 0 3 5
0 10 -8 10 -18 0 -30 40 -16 56 7 9 7 19 -1 34 -9 16 -9 25 0 35 7 8 9 19 5
25 -3 5 -1 10 4 10 6 0 11 -7 11 -15 0 -21 16 -19 25 3 7 20 4 28 -9 24 -6 -2
-21 0 -35 3 -25 6 -25 7 -7 21 11 8 35 14 54 14 44 0 38 23 -9 31 -19 4 -26 7
-16 8 11 1 17 9 17 25 0 19 6 24 37 29 24 4 40 2 45 -6 5 -8 8 -7 8 5 0 16
-34 29 -90 33 -38 3 -40 4 -40 16 0 15 42 48 62 49 9 0 20 5 23 10 4 6 11 8
16 4 5 -3 7 -10 4 -15 -4 -5 1 -9 10 -9 12 0 15 6 9 23 -9 30 -7 29 -51 31
-21 1 -44 5 -51 9 -20 13 -32 -2 -29 -36 2 -26 -2 -32 -18 -32 -14 0 -21 8
-23 25 -2 18 0 21 6 11 8 -11 11 -10 16 6 7 23 -2 53 -15 53 -5 0 -9 -7 -9
-16 0 -19 -41 -60 -69 -69 -23 -7 -39 13 -17 21 9 3 16 16 16 29 0 19 -7 23
-46 29 -26 3 -188 6 -360 6 -240 0 -314 -3 -318 -12 -5 -10 -7 -10 -12 0 -3 6
-18 12 -32 11 -15 0 -21 -3 -14 -6 17 -7 15 -23 -3 -23 -8 0 -15 7 -15 15 0
10 -10 15 -32 15 l-33 0 23 -18 c23 -18 23 -18 4 -40 -22 -25 -42 -29 -42 -9
0 9 -13 14 -35 15 -42 2 -39 -13 5 -21 16 -4 30 -12 30 -19 0 -16 54 -48 81
-48 24 0 24 -9 2 -26 -24 -18 -33 -17 -33 1 0 9 -9 15 -24 15 -13 0 -29 -7
-36 -15 -13 -16 -70 -21 -70 -6 0 5 -9 7 -20 4 -12 -3 -20 0 -20 7 0 6 9 14
20 17 29 8 25 33 -6 33 -16 0 -24 5 -22 12 3 7 -2 19 -10 27 -9 9 -12 25 -8
43 l5 28 -2809 0 -2810 0 0 -1253z m5137 898 c29 -12 39 -13 51 -3 13 11 14 9
9 -14 -8 -30 12 -48 55 -48 13 0 38 -13 57 -29 l34 -28 -28 -7 c-15 -4 -30 -5
-33 -1 -3 3 2 5 11 5 11 0 14 5 10 16 -3 9 -12 13 -22 8 -9 -4 -30 -6 -48 -5
-17 1 -34 -3 -38 -9 -4 -6 5 -10 22 -10 26 -1 27 -2 10 -15 -11 -7 -26 -11
-35 -8 -31 9 -67 28 -74 38 -5 5 -5 -5 -2 -22 5 -27 3 -33 -11 -33 -15 0 -17
6 -11 40 4 23 2 49 -4 61 -10 18 -5 79 6 79 3 0 21 -7 41 -15z m2143 -2230
c78 -8 201 -37 290 -71 86 -32 194 -95 198 -116 3 -16 -3 -15 -65 3 -211 63
-267 72 -478 72 -204 0 -327 -16 -448 -58 -23 -8 -48 -15 -55 -15 -8 0 -28 -6
-45 -14 -55 -25 -104 -37 -128 -32 -37 7 -77 25 -58 25 19 1 29 21 29 54 -1
21 -1 21 -14 4 -12 -15 -18 -16 -35 -8 -16 9 -22 8 -30 -8 -9 -16 -14 -17 -35
-8 -19 9 -21 14 -10 24 7 7 22 13 33 13 11 0 23 5 26 10 3 6 13 10 22 10 9 0
25 7 35 17 11 10 36 17 63 17 25 1 49 6 53 12 19 28 193 62 377 74 111 7 155
6 275 -5z m-1683 -1139 c-4 -43 -2 -57 11 -69 36 -32 47 -25 52 33 3 30 8 54
13 53 4 -2 16 6 27 17 28 28 60 26 60 -3 0 -15 16 -36 46 -61 25 -21 50 -48
56 -61 7 -15 27 -27 66 -39 69 -20 118 -33 153 -40 20 -5 31 -17 47 -58 l21
-53 0 41 c1 46 24 75 43 56 6 -6 23 -9 37 -6 33 7 176 -56 210 -92 15 -17 29
-23 40 -18 9 4 25 7 37 8 11 1 28 7 37 14 19 16 53 8 61 -13 3 -8 15 -15 26
-15 18 0 20 6 20 55 0 61 6 65 64 41 30 -12 65 -54 101 -120 6 -10 39 -30 75
-45 57 -25 88 -52 102 -93 5 -12 48 3 48 17 0 7 7 16 16 19 19 7 54 -20 54
-41 0 -16 14 -17 40 -1 16 10 23 10 37 -4 29 -30 41 -367 13 -376 -19 -7 -10
-20 10 -15 19 5 20 2 17 -72 -1 -42 1 -79 5 -81 4 -3 8 -16 8 -30 0 -13 6 -24
13 -25 10 0 10 -2 0 -6 -7 -2 -13 -13 -13 -24 0 -14 -7 -19 -27 -19 l-28 -1
30 -14 30 -13 -27 -1 c-20 -1 -28 -6 -28 -19 0 -10 -9 -25 -20 -34 -16 -14
-19 -29 -18 -81 2 -58 4 -64 21 -59 16 4 18 1 13 -16 -4 -12 -2 -31 4 -43 10
-17 8 -23 -8 -35 -11 -7 -23 -30 -27 -51 -3 -21 -16 -54 -27 -73 -11 -19 -23
-61 -26 -92 -5 -55 -4 -58 18 -58 22 0 22 -1 7 -18 -10 -10 -17 -24 -17 -30 0
-7 -13 -12 -30 -12 -16 0 -30 -4 -30 -10 0 -5 16 -10 35 -10 19 0 35 -5 35
-10 0 -6 -14 -9 -32 -8 -40 4 -46 -16 -22 -67 20 -43 9 -64 -24 -46 -19 10
-22 8 -27 -22 -4 -18 -5 -51 -3 -72 2 -32 7 -39 21 -37 27 5 39 -40 22 -80
-15 -34 -48 -78 -59 -78 -3 0 -6 7 -6 15 0 21 -16 19 -24 -2 -3 -10 -9 -24
-12 -31 -3 -7 0 -11 8 -10 16 4 13 -38 -4 -59 -8 -10 -14 -10 -24 -2 -11 9
-14 9 -14 0 0 -6 -12 -17 -27 -24 -14 -6 -38 -23 -53 -37 -15 -14 -40 -37 -57
-52 -27 -24 -73 -121 -73 -154 0 -17 -26 -19 -36 -3 -8 14 -47 -29 -64 -71
-18 -44 -86 -114 -105 -107 -8 4 -16 1 -17 -6 -7 -57 -20 -77 -49 -77 -15 0
-31 -5 -35 -11 -4 -8 -9 -7 -15 2 -5 9 -10 5 -14 -13 -5 -21 -15 -28 -45 -33
-21 -3 -48 -17 -61 -31 -12 -13 -30 -24 -39 -24 -9 0 -21 -5 -28 -12 -6 -6
-18 -13 -27 -14 -8 -1 -28 -12 -44 -23 -16 -12 -42 -21 -59 -21 -16 0 -42 -6
-58 -14 -16 -8 -42 -17 -58 -20 -16 -3 -34 -10 -40 -16 -15 -15 -36 -12 -36 6
0 12 -6 14 -32 8 -18 -4 -57 -7 -85 -6 -42 1 -55 -3 -67 -19 -20 -29 -47 -20
-60 19 -15 44 -33 54 -63 35 -21 -14 -25 -14 -43 2 -11 10 -17 22 -14 26 3 5
1 16 -4 25 -6 11 -11 13 -16 5 -10 -16 -56 -14 -90 4 -36 19 -53 19 -64 0 -7
-13 -10 -11 -20 10 -7 15 -9 31 -6 37 9 14 -15 28 -48 28 -15 0 -30 6 -35 13
-4 6 -8 65 -10 130 -1 65 -7 124 -12 131 -6 7 -8 16 -3 20 4 4 -1 12 -10 17
-9 5 -20 24 -23 41 -4 18 -11 39 -15 48 -4 8 -15 31 -23 50 -9 19 -28 62 -43
95 -30 64 -32 69 -41 115 -3 16 -9 30 -14 30 -5 0 -9 13 -9 29 0 16 -5 42 -11
58 -6 15 -12 75 -13 133 -1 86 -5 114 -23 150 -12 25 -29 73 -39 108 -15 54
-16 72 -5 128 16 88 98 253 152 305 41 40 42 40 63 21 11 -10 32 -19 46 -20
24 -1 136 -18 191 -28 23 -4 33 3 69 48 26 33 52 55 68 58 15 3 33 18 44 35
16 28 16 34 3 59 -21 39 -19 53 10 82 14 14 25 27 25 29 0 11 -57 3 -74 -10
-11 -8 -30 -15 -43 -15 -23 0 -30 13 -35 75 -3 28 -6 30 -41 30 -32 1 -44 7
-70 38 -29 35 -35 38 -67 32 -57 -10 -116 -8 -138 6 -18 12 -24 10 -45 -9 -23
-21 -26 -22 -41 -7 -20 21 -21 67 -1 105 20 38 55 41 55 5 0 -16 6 -25 15 -25
8 0 15 6 15 13 0 8 9 24 20 37 11 13 20 27 20 32 0 4 4 8 9 8 19 0 61 47 61
68 0 11 5 24 10 27 14 8 13 52 -1 57 -6 2 3 19 20 37 18 19 31 41 30 50 -3 17
18 96 31 123 5 9 6 32 3 52 -6 38 12 95 31 97 6 1 17 1 24 0 7 -1 12 10 12 27
0 15 11 43 25 62 14 19 25 41 25 50 0 18 47 74 70 83 8 3 26 6 39 6 23 1 24
-1 18 -53z m-2220 -329 c28 -28 62 -220 119 -682 25 -203 54 -433 64 -510 11
-77 27 -209 37 -292 19 -170 16 -183 -34 -166 -23 8 -69 0 -238 -42 -231 -57
-321 -78 -530 -125 -77 -17 -156 -35 -175 -40 -57 -14 -112 -27 -360 -80 -129
-28 -251 -55 -270 -60 -19 -6 -46 -12 -60 -14 -29 -5 -218 -49 -335 -78 -110
-27 -334 -74 -460 -96 -27 -5 -81 -16 -120 -25 -84 -19 -193 -36 -258 -41 -26
-2 -50 -6 -54 -10 -3 -3 -19 -6 -35 -6 -22 0 -28 5 -28 22 0 12 -6 29 -14 37
-13 15 -43 125 -67 241 -6 30 -15 71 -19 90 -18 79 -63 298 -70 345 -9 63 -2
116 18 133 14 11 14 12 -4 12 -11 0 -25 -5 -32 -12 -17 -17 -16 5 0 33 11 17
11 23 0 26 -6 3 -12 9 -12 14 0 14 28 11 33 -3 3 -7 6 -1 6 15 1 16 7 27 15
27 9 0 12 7 9 20 -4 16 0 20 17 20 17 0 21 -4 17 -20 -3 -13 0 -20 9 -20 9 0
14 11 14 34 0 30 -3 33 -21 29 -17 -5 -20 -2 -17 18 2 16 9 24 21 23 9 -1 17
4 17 12 0 8 -6 11 -15 8 -8 -4 -15 -1 -15 5 0 7 8 14 18 17 32 10 47 22 44 35
-2 7 2 23 9 36 10 18 10 26 1 35 -7 7 -12 21 -12 31 0 16 6 19 41 15 32 -3 37
-1 25 8 -9 6 -16 15 -16 19 0 5 -10 19 -22 32 l-21 23 31 0 c18 0 32 4 32 8 0
5 18 17 40 28 38 18 52 34 30 34 -5 0 -10 7 -10 15 0 11 11 15 39 15 36 0 38
2 37 30 -1 23 -6 30 -21 31 -17 1 -17 2 -2 6 9 2 17 10 17 16 0 7 3 23 7 36
l6 24 -79 -7 c-43 -4 -138 -14 -210 -22 -72 -8 -155 -14 -185 -12 l-54 3 -18
70 c-10 38 -24 77 -32 85 -8 9 -21 52 -30 96 -21 101 -12 144 30 155 30 9 110
11 160 5 17 -2 37 3 45 10 19 16 174 33 400 44 169 8 354 24 470 40 36 5 139
16 230 25 226 22 321 35 343 46 10 6 84 12 165 14 81 3 158 7 172 10 14 2 124
14 245 25 121 12 263 25 315 31 52 5 133 12 180 15 47 4 91 11 98 17 7 6 43
12 80 14 37 2 94 7 127 11 82 10 103 8 122 -11z m1663 -614 c0 -16 -25 -77
-55 -138 -69 -139 -95 -236 -102 -390 -7 -139 12 -272 52 -378 24 -66 28 -126
9 -160 -5 -9 -14 -13 -21 -9 -21 14 -134 193 -153 245 -79 215 -67 345 52 586
58 119 82 156 132 208 34 35 67 63 74 63 7 0 12 -12 12 -27z m3906 -1662 c137
-33 169 -34 214 -6 43 27 104 26 93 -1 -3 -8 2 -17 11 -20 19 -7 22 -44 3 -44
-7 0 -18 5 -24 11 -9 9 -21 8 -47 -5 -46 -21 -53 -34 -25 -45 15 -5 32 -3 48
5 38 20 54 -1 21 -26 -30 -23 -37 -24 -115 -5 -257 61 -252 60 -277 90 -21 24
-22 37 -6 53 15 15 10 15 104 -7z m-4406 -120 c16 -31 16 -116 0 -136 -35 -42
-113 -36 -124 10 -7 29 3 116 17 133 5 6 29 12 53 12 33 0 46 -5 54 -19z m252
-131 c21 -6 42 -20 48 -30 6 -11 13 -93 16 -183 l6 -163 -26 -31 c-45 -53
-131 -55 -182 -4 l-27 26 7 150 c6 155 7 165 20 202 12 37 72 51 138 33z
m-1313 -105 c8 -8 16 -36 17 -63 1 -27 9 -60 18 -74 12 -18 13 -32 6 -59 -6
-21 -6 -62 -1 -104 12 -100 0 -129 -63 -162 -36 -19 -116 -9 -151 19 -31 24
-36 92 -7 103 16 6 16 7 -1 20 -21 15 -42 133 -32 175 4 14 8 47 10 74 2 27 9
54 15 60 34 34 159 41 189 11z m4091 -79 c0 -16 0 -16 -90 -96 -94 -83 -213
-170 -232 -170 -10 0 -18 -7 -18 -15 0 -8 -6 -15 -14 -15 -7 0 -19 -6 -25 -14
-14 -17 -81 -27 -74 -11 6 13 110 94 267 207 67 48 132 96 146 107 30 24 40
26 40 7z m-4499 -34 c6 -15 8 -41 4 -59 -5 -28 -12 -34 -52 -45 -59 -17 -77
-42 -45 -63 25 -18 29 -50 7 -59 -22 -8 -39 1 -50 27 -6 12 -23 26 -40 31 -16
5 -40 13 -53 19 -17 8 -36 6 -76 -6 -29 -9 -58 -17 -64 -17 -19 0 -14 18 6 23
11 3 8 5 -9 6 -19 1 -28 -5 -32 -19 -3 -11 -13 -23 -24 -26 -10 -3 -36 -14
-58 -24 -40 -19 -51 -22 -205 -60 -47 -12 -108 -28 -136 -36 -28 -8 -69 -14
-92 -14 -22 0 -71 -11 -109 -24 -37 -14 -95 -28 -128 -31 -33 -4 -78 -13 -100
-20 -80 -25 -92 -26 -100 -8 -8 22 27 53 59 53 11 0 55 11 96 24 41 13 109 33
150 45 41 12 89 26 105 32 17 6 77 24 135 40 99 27 139 36 349 73 46 8 89 20
94 25 6 6 17 11 24 11 7 0 30 11 51 23 20 13 48 27 62 30 86 20 167 50 184 66
23 23 33 19 47 -17z m-1966 -37 c21 -31 56 -75 77 -98 22 -23 46 -52 55 -64
12 -19 43 -113 43 -135 0 -16 -17 -7 -27 15 -6 12 -32 47 -58 77 -50 60 -50
60 -112 141 -39 51 -53 95 -36 112 12 13 20 7 58 -48z m5918 -197 c4 -10 7
-10 15 0 7 11 11 10 20 -1 16 -19 -10 -54 -48 -62 -17 -4 -36 -12 -43 -18 -20
-20 -124 -67 -146 -67 -12 0 -21 7 -21 15 0 8 6 15 13 15 14 0 47 35 47 50 0
6 4 10 9 10 5 0 12 11 15 25 4 14 13 25 21 25 8 0 15 7 15 16 0 11 6 15 20 11
13 -3 20 0 20 9 0 12 4 12 29 -1 16 -8 32 -20 34 -27z m-5653 -293 c6 -8 9
-18 6 -24 -3 -5 -55 -37 -114 -70 -93 -52 -116 -61 -159 -61 -36 0 -55 5 -67
19 -16 18 -15 19 29 40 24 11 47 21 50 21 4 0 109 46 170 75 39 18 70 18 85 0z
m-48 -195 c27 -21 42 -56 27 -66 -5 -3 -9 -23 -9 -45 0 -24 -5 -39 -12 -39 -7
0 -23 -3 -34 -6 -18 -5 -24 0 -33 28 -13 39 -22 128 -15 140 9 15 51 8 76 -12z
m2818 -505 c0 -3 -14 -11 -31 -18 l-31 -12 36 -44 c20 -23 36 -51 36 -60 0
-10 38 -51 84 -92 47 -41 85 -79 85 -85 1 -14 24 -24 57 -24 16 0 24 6 24 18
0 25 19 42 48 42 38 0 59 -17 60 -47 0 -31 -15 -56 -30 -47 -13 8 -58 -4 -58
-16 0 -5 8 -17 18 -27 11 -10 22 -26 25 -35 4 -10 13 -18 20 -18 7 0 20 -11
27 -25 7 -14 19 -25 27 -25 23 0 36 -44 26 -87 l-9 -38 -17 33 c-21 39 -34 40
-99 7 -27 -14 -53 -25 -58 -25 -14 0 -110 -62 -110 -71 0 -5 -6 -9 -12 -9 -16
0 -127 -57 -149 -76 -8 -8 -23 -14 -32 -14 -11 0 -17 -8 -17 -24 0 -14 -4 -28
-10 -31 -22 -13 -9 -27 20 -22 37 8 48 -8 18 -24 -13 -6 -34 -25 -48 -40 -25
-28 -234 -159 -254 -159 -6 0 -30 -16 -54 -35 -24 -18 -64 -41 -90 -50 -81
-28 -135 -56 -197 -99 -33 -23 -94 -53 -135 -66 -91 -30 -310 -139 -410 -205
-40 -26 -98 -56 -129 -65 -31 -9 -126 -52 -212 -95 -184 -92 -190 -93 -250 -7
-86 122 -166 232 -204 283 -23 30 -66 95 -97 145 -49 80 -56 99 -63 161 l-7
70 34 23 c18 13 35 25 37 26 6 5 -20 66 -41 96 -19 27 -35 87 -45 171 -7 56 8
62 26 11 13 -35 63 -94 80 -94 8 0 71 -93 71 -105 0 -10 32 -34 45 -35 6 0 16
15 23 33 16 44 92 84 122 65 17 -11 22 -10 35 9 26 37 83 66 115 59 23 -4 32
-1 40 13 15 30 85 61 120 55 22 -5 31 -2 36 10 9 25 82 59 110 52 17 -5 26 -1
33 13 17 31 81 63 113 57 20 -4 31 0 41 14 16 23 101 63 105 50 6 -16 26 -11
40 10 18 30 90 64 107 50 10 -8 16 -6 27 8 7 10 32 29 55 42 34 19 45 21 57
11 12 -10 18 -8 32 14 19 29 79 58 104 50 10 -3 25 5 38 20 26 30 67 48 92 40
10 -3 25 3 36 16 27 30 68 49 92 42 15 -3 24 0 28 11 10 25 81 59 101 48 22
-13 76 44 69 72 -6 24 10 56 29 56 9 0 23 4 33 9 46 24 162 50 162 36z m-3290
-59 c11 -23 20 -50 20 -59 0 -22 -35 -22 -84 -2 -20 9 -41 13 -47 9 -14 -8
-39 15 -39 36 0 10 -7 20 -15 24 -31 11 -13 23 48 32 83 13 93 9 117 -40z
m4933 2 c10 -62 20 -93 32 -108 17 -20 65 -139 65 -161 0 -10 -4 -21 -10 -24
-5 -3 -10 -18 -10 -32 0 -18 4 -24 15 -19 8 3 15 1 15 -4 0 -6 7 -10 15 -10
18 0 19 4 3 30 -10 15 -10 22 0 32 9 9 12 9 12 -4 0 -9 7 -18 15 -22 11 -4 15
-21 15 -66 0 -57 1 -60 24 -60 31 0 86 -46 86 -70 0 -11 8 -25 18 -32 10 -7
41 -46 70 -85 49 -69 65 -113 41 -113 -6 0 -9 -10 -7 -22 2 -16 12 -24 33 -28
24 -4 29 -10 27 -27 -3 -20 0 -21 30 -16 42 6 56 -9 64 -70 5 -36 3 -53 -12
-74 -11 -17 -19 -46 -19 -75 0 -32 -6 -53 -18 -65 -17 -17 -19 -17 -31 0 -25
33 -32 12 -9 -28 9 -16 14 -18 24 -7 18 17 29 15 30 -5 1 -10 5 -4 10 12 4 17
15 53 23 81 17 60 39 106 59 122 12 10 26 0 80 -56 37 -37 91 -88 121 -112 30
-25 55 -51 56 -58 0 -7 10 -16 23 -21 24 -9 107 -94 107 -110 0 -6 -7 -16 -16
-23 -9 -7 -36 -33 -60 -57 -29 -29 -49 -41 -60 -37 -10 4 -18 0 -21 -13 -3
-11 -18 -25 -34 -31 -16 -7 -29 -16 -29 -20 0 -5 -35 -26 -77 -48 -43 -21 -96
-48 -118 -60 -94 -48 -146 -64 -187 -57 -38 7 -40 6 -36 -13 7 -26 1 -33 -54
-61 -49 -24 -68 -22 -68 10 0 10 -7 19 -15 19 -8 0 -23 10 -35 22 -22 24 -23
22 -20 -34 1 -21 -2 -38 -7 -38 -16 0 -33 24 -33 45 0 16 -11 27 -41 40 -22
10 -49 31 -61 47 -18 26 -19 31 -5 52 9 14 41 32 79 45 35 13 91 36 125 52 55
25 93 30 93 10 0 -3 -16 -26 -35 -50 -19 -24 -35 -49 -35 -56 0 -7 -9 -24 -20
-38 -11 -14 -16 -28 -11 -31 13 -8 61 58 61 84 0 12 11 31 25 42 14 11 25 25
25 33 0 14 27 28 40 20 4 -3 10 4 13 16 5 18 12 20 64 17 l58 -3 -2 -38 c-2
-36 -1 -37 25 -34 23 3 27 8 24 31 -2 16 3 29 12 32 10 4 13 15 9 40 -4 24 -2
34 7 34 9 0 8 5 -3 18 -10 10 -17 26 -17 35 0 10 -4 25 -9 35 -6 9 -13 31 -17
47 -5 21 -8 25 -11 13 -3 -10 -7 -18 -10 -18 -12 0 -143 143 -143 156 0 7 -7
17 -17 22 -13 8 -11 10 10 10 28 0 87 23 87 34 0 5 -11 8 -25 8 -21 0 -65 33
-65 50 0 3 -16 6 -35 6 -22 0 -35 -5 -35 -13 0 -7 -4 -13 -8 -13 -10 0 -52 55
-52 68 0 5 -15 25 -34 45 -30 32 -41 55 -78 165 -6 17 -18 32 -25 32 -8 0 -21
15 -29 33 -8 17 -30 61 -49 97 -19 36 -43 85 -52 110 -10 24 -25 52 -35 62
-17 17 -48 107 -48 140 0 10 5 24 11 31 5 7 19 27 30 45 l20 34 24 -24 c13
-14 29 -36 34 -51 13 -33 36 -37 27 -4 -3 12 -6 34 -6 49 0 24 -4 27 -37 30
-32 3 -39 8 -51 39 -13 33 -12 37 15 67 36 40 49 40 56 0z m-1422 -67 c-23
-23 -25 -40 -12 -87 10 -34 5 -47 -21 -57 -20 -7 -36 12 -19 22 7 5 -5 13 -29
20 -45 13 -46 16 -25 38 12 12 19 13 30 3 12 -10 15 -9 15 4 0 15 -35 22 -79
16 -10 -1 -11 4 -6 17 4 10 10 26 13 37 4 16 12 18 57 13 28 -3 58 -1 66 3 24
16 32 -7 10 -29z m1237 -126 c-4 -90 -3 -113 7 -105 17 14 25 2 25 -35 0 -26
4 -31 23 -31 19 1 22 -5 25 -37 3 -29 9 -41 28 -49 17 -8 29 -25 37 -55 6 -24
15 -43 19 -43 4 0 8 -8 8 -19 0 -10 7 -24 15 -31 8 -7 15 -20 15 -30 0 -10 7
-23 15 -30 8 -7 15 -26 15 -42 0 -19 10 -38 29 -56 16 -15 41 -53 56 -84 15
-32 43 -74 62 -94 29 -32 34 -43 31 -75 -2 -26 0 -35 7 -29 16 13 36 -3 54
-43 9 -20 29 -45 44 -57 15 -12 27 -28 27 -36 0 -8 9 -14 19 -14 11 0 28 -13
38 -30 9 -16 21 -30 25 -30 14 0 9 -33 -9 -52 -24 -27 -58 -22 -86 12 -14 17
-29 30 -32 30 -4 0 -4 -22 0 -49 5 -38 3 -49 -9 -54 -19 -8 -38 16 -36 45 4
41 1 42 -28 15 -15 -15 -46 -36 -67 -46 -37 -19 -38 -20 -13 -21 33 0 42 -13
28 -41 -13 -23 -75 -53 -90 -44 -6 4 -36 -12 -68 -34 -58 -41 -96 -51 -106
-28 -3 8 -12 3 -26 -15 -12 -16 -28 -28 -36 -28 -12 0 -20 27 -14 55 1 6 -4 5
-11 -2 -6 -6 -13 -22 -14 -35 -1 -13 -3 -26 -4 -30 0 -5 -10 -8 -21 -8 -10 0
-24 -9 -30 -20 -21 -39 -50 -19 -50 35 0 42 10 55 36 49 15 -4 24 -2 24 5 0 6
-7 11 -15 11 -9 0 -21 11 -27 25 -6 14 -14 25 -18 25 -13 0 -22 -118 -11 -138
19 -35 2 -56 -71 -90 -47 -23 -78 -32 -94 -28 -19 5 -24 2 -24 -12 0 -12 -15
-25 -42 -37 -24 -10 -62 -27 -86 -37 -58 -26 -73 -11 -66 63 l5 54 -21 -39
c-18 -32 -20 -43 -11 -63 6 -13 11 -32 11 -41 0 -24 -55 -55 -101 -57 -37 -2
-37 -2 -46 44 -9 49 7 178 24 190 5 3 30 21 55 39 26 17 50 32 53 32 4 0 18 9
32 20 38 30 53 26 53 -15 0 -28 -5 -38 -25 -47 -18 -8 -25 -19 -24 -37 1 -17
3 -20 6 -8 2 9 13 17 23 17 35 0 50 12 50 39 0 15 -5 32 -10 37 -7 7 -7 19 -1
36 12 31 41 45 41 20 0 -12 8 -7 30 17 20 22 37 31 49 28 13 -3 26 5 40 24 27
37 56 37 70 2 l11 -28 -4 27 c-4 33 -1 36 99 89 70 36 80 39 91 25 6 -9 25
-16 43 -16 28 0 31 3 29 28 -3 40 7 50 63 66 50 15 51 15 74 -12 14 -15 25
-35 25 -44 0 -10 6 -18 14 -18 27 0 25 16 -5 45 -21 19 -30 36 -28 54 1 14 -1
34 -5 44 -3 9 -8 24 -11 32 -2 8 -16 15 -30 15 -27 0 -60 44 -96 128 -16 37
-18 51 -9 71 11 25 1 40 -27 41 -15 0 -43 52 -43 80 0 11 -9 37 -20 57 -11 20
-17 46 -14 57 3 13 -5 34 -21 55 -14 19 -25 45 -25 58 0 13 -6 36 -14 51 -8
15 -19 61 -25 102 -7 41 -14 90 -18 108 -3 18 -2 57 2 88 6 50 12 61 58 105
77 74 81 70 75 -66z m-168 -88 c0 -40 9 -107 19 -148 11 -41 25 -101 31 -134
7 -33 15 -64 19 -70 4 -5 20 -49 36 -97 29 -86 29 -87 11 -125 -18 -37 -18
-38 1 -20 11 9 22 17 26 17 3 0 16 -21 27 -47 21 -47 22 -81 4 -141 -6 -22 -4
-23 27 -20 33 3 34 2 43 -46 6 -34 14 -50 27 -53 21 -6 25 -18 9 -28 -6 -4 -8
-10 -5 -15 7 -12 -40 -24 -54 -15 -12 7 -58 -21 -53 -33 4 -10 -69 -24 -95
-17 -15 3 -26 -1 -35 -14 -8 -11 -31 -28 -52 -38 -38 -18 -39 -18 -54 5 -23
35 -35 27 -27 -18 8 -47 -7 -74 -36 -65 -11 4 -19 2 -19 -4 0 -17 -94 -71
-104 -61 -6 6 -16 4 -25 -5 -9 -8 -26 -23 -38 -34 -11 -10 -32 -22 -45 -26
-12 -4 -33 -19 -46 -32 -16 -18 -30 -24 -48 -20 -13 2 -24 -1 -25 -7 -1 -18
-18 27 -18 50 -1 11 5 29 13 40 14 18 15 18 28 1 13 -17 14 -13 14 35 -1 66
33 124 94 163 51 32 57 32 65 -7 l8 -32 20 54 c35 97 67 114 67 36 0 -54 25
-83 36 -41 3 14 4 42 1 61 -6 38 0 64 14 64 5 0 9 -6 9 -14 0 -8 6 -16 14 -19
25 -10 28 69 6 172 -12 57 -17 109 -14 132 4 22 2 45 -3 51 -18 22 -35 238
-29 365 4 92 9 129 23 150 18 30 113 122 126 123 4 0 7 -33 7 -73z m275 -1337
c3 -5 15 -10 25 -10 24 0 60 -46 60 -76 0 -17 6 -24 19 -24 30 0 81 -48 81
-76 0 -14 -6 -24 -14 -24 -8 0 -16 -5 -18 -11 -2 -5 -23 -14 -47 -20 -39 -9
-45 -7 -58 11 -10 14 -19 18 -26 12 -14 -11 -46 -7 -60 7 -6 6 -23 11 -38 11
-14 0 -38 9 -53 21 -21 17 -26 29 -26 65 0 51 23 78 93 105 52 21 54 21 62 9z
m-4693 -55 c6 -14 15 -25 20 -25 4 0 8 -4 8 -10 0 -5 12 -35 27 -67 14 -32 27
-60 27 -63 1 -3 5 -10 9 -17 23 -36 67 -127 67 -138 0 -7 6 -18 14 -24 8 -6
16 -23 18 -36 4 -20 0 -25 -24 -30 -16 -4 -35 -2 -42 4 -14 12 -27 69 -31 136
-3 63 -4 65 -30 65 -18 0 -25 5 -25 19 0 11 -5 21 -10 23 -6 2 -13 21 -16 43
-2 21 -9 44 -14 50 -6 7 -8 14 -5 17 3 3 -1 18 -10 34 -18 34 -19 44 -5 44 6
0 16 -11 22 -25z m4506 -105 c7 0 12 -6 11 -12 -5 -37 1 -48 24 -43 32 8 126
-48 124 -75 -1 -17 -8 -20 -46 -20 -32 0 -53 -7 -79 -27 l-35 -26 -28 34 c-16
19 -29 40 -29 48 0 9 -9 12 -30 9 -17 -3 -33 -1 -36 4 -10 15 -24 8 -24 -12 0
-11 4 -20 8 -20 13 0 45 -77 38 -89 -11 -17 -56 -14 -56 4 0 17 -6 18 -35 5
-19 -8 -19 -9 2 -9 16 -1 21 -6 17 -16 -4 -8 -12 -15 -19 -15 -7 0 -15 7 -19
15 -8 23 -25 18 -36 -10 -10 -27 -24 -32 -36 -14 -5 8 -10 6 -16 -5 -5 -9 -6
-21 -2 -27 8 -13 -42 -59 -63 -59 -8 0 -21 -7 -29 -15 -31 -30 -48 -17 -87 65
-30 61 -37 89 -35 122 3 42 5 44 67 77 42 22 66 30 69 23 6 -18 20 -14 27 8 5
17 51 50 69 50 2 0 6 -10 8 -22 l3 -23 20 22 c11 12 34 25 50 29 17 4 42 15
57 25 14 11 31 19 37 19 6 0 16 8 22 18 11 17 13 17 43 -10 17 -15 36 -28 44
-28z m-625 -131 c-1 -13 3 -40 8 -59 12 -49 1 -105 -25 -119 -50 -27 -67 -39
-92 -64 -27 -28 -54 -36 -54 -16 0 5 -4 8 -9 5 -4 -3 -16 0 -26 7 -15 12 -16
18 -4 55 12 41 26 51 45 32 6 -6 19 -4 37 5 15 8 25 10 22 5 -3 -5 -1 -11 5
-15 16 -10 12 18 -6 44 -20 28 -9 54 46 114 38 41 56 43 53 6z m107 -201 c24
-39 59 -112 60 -127 0 -18 -38 -51 -60 -51 -10 0 -23 7 -30 15 -11 13 -14 14
-24 0 -20 -26 -37 -1 -43 63 -6 69 10 107 49 115 13 2 25 5 28 6 3 0 12 -9 20
-21z m-458 -68 c18 -11 50 -20 70 -20 20 0 38 -6 41 -12 4 -10 7 -10 18 0 7 6
24 12 37 12 22 0 23 -2 20 -67 -4 -65 -5 -68 -28 -67 -14 1 -33 4 -42 8 -13 6
-19 2 -24 -18 -8 -34 -38 -34 -68 -1 -13 14 -29 25 -36 25 -13 0 -12 16 6 98
6 29 4 34 -15 39 -11 3 -21 9 -21 14 0 13 6 11 42 -11z m317 -8 c6 -10 7 -29
4 -42 -4 -15 -1 -27 9 -34 18 -14 38 -50 38 -70 0 -9 -18 -27 -40 -41 -39 -25
-70 -32 -70 -17 0 4 -10 13 -22 21 -18 10 -20 11 -10 0 19 -20 14 -73 -8 -97
-11 -12 -25 -33 -30 -47 -13 -34 -40 -33 -40 3 0 15 -9 41 -19 59 -11 17 -17
34 -14 37 11 11 51 6 56 -6 2 -7 9 19 16 57 7 39 15 82 17 97 5 26 74 98 94
98 5 0 14 -8 19 -18z m269 -170 c2 -29 8 -42 18 -42 8 0 20 -4 27 -10 7 -5 27
-21 45 -36 20 -16 32 -35 32 -49 0 -27 -6 -32 -41 -39 -13 -2 -32 -7 -41 -11
-16 -6 -18 0 -18 54 0 34 -4 61 -10 61 -5 0 -10 -17 -10 -39 0 -53 -33 -125
-65 -139 -33 -15 -58 -15 -73 0 -17 17 -15 140 2 175 8 15 19 40 24 54 10 25
77 70 97 65 6 -1 11 -21 13 -44z m-665 -13 c17 -8 30 -8 43 -1 14 8 28 5 56
-9 21 -11 38 -23 38 -28 0 -5 9 -11 19 -14 16 -4 20 -18 26 -82 9 -92 -2 -114
-38 -74 -13 13 -42 33 -65 43 -42 19 -43 19 -57 0 -13 -18 -14 -17 -25 13 -10
28 -14 31 -30 20 -26 -16 -30 -8 -32 58 -1 46 2 60 17 71 23 17 19 17 48 3z
m492 -97 c-16 -44 -16 -51 -1 -95 23 -70 21 -79 -31 -119 -100 -75 -112 -77
-132 -28 l-9 25 -10 -25 c-6 -14 -11 -20 -12 -15 0 11 -20 -16 -20 -29 0 -4 7
-6 15 -3 10 4 16 -4 21 -28 8 -44 0 -55 -42 -55 -33 0 -45 12 -24 25 18 11 10
35 -16 45 -15 6 -25 17 -23 27 1 10 1 30 0 45 -1 25 -4 26 -35 21 -44 -7 -105
14 -115 39 -6 16 -11 11 -30 -31 -13 -27 -30 -52 -37 -55 -34 -13 -62 24 -49
64 3 10 29 38 57 61 44 38 51 41 60 26 5 -10 13 -15 18 -12 4 3 34 -10 67 -28
55 -31 59 -32 85 -18 15 9 30 26 33 39 9 36 165 177 215 194 26 9 32 -21 15
-70z m325 -141 c0 -40 93 -142 112 -123 18 18 26 15 30 -15 4 -35 26 -41 34
-9 10 40 31 52 54 31 11 -10 20 -25 20 -33 0 -20 -30 -41 -58 -42 -13 0 -32
-9 -44 -20 -12 -11 -37 -25 -57 -31 -20 -6 -44 -18 -53 -26 -11 -10 -26 -13
-42 -9 -19 5 -26 2 -31 -14 -3 -11 -10 -20 -14 -20 -15 0 -31 25 -31 50 0 37
-11 71 -21 64 -5 -3 -9 -34 -9 -70 0 -35 -4 -64 -9 -64 -5 0 -11 5 -13 11 -5
16 -48 -4 -87 -40 -44 -41 -61 -34 -61 22 0 45 -29 132 -37 110 -2 -7 0 -21 6
-32 6 -11 11 -38 11 -61 0 -36 -2 -41 -19 -35 -11 3 -22 1 -26 -5 -3 -5 -15
-10 -26 -10 -11 0 -17 5 -14 10 3 6 4 10 1 10 -2 0 -11 2 -18 5 -9 4 -14 -2
-15 -16 -3 -31 -11 -35 -29 -13 -14 18 -15 15 -10 -31 12 -108 -34 -92 -77 27
l-24 68 33 9 c40 11 66 36 84 79 15 38 93 97 117 88 10 -4 21 2 30 14 16 23
114 70 144 70 17 0 24 -11 20 -34 -1 -4 2 -18 6 -30 6 -17 8 -14 13 19 5 36 8
40 35 40 25 1 30 6 36 31 12 59 39 76 39 25z m-834 -187 c15 -22 19 -23 26
-10 10 18 38 22 38 6 0 -7 6 -8 16 -2 22 12 129 -15 163 -42 17 -13 7 -110
-15 -144 -9 -13 -13 -30 -10 -38 3 -8 0 -14 -7 -14 -8 0 -11 17 -9 57 2 54 2
57 -13 39 -8 -11 -15 -28 -15 -38 0 -10 -10 -23 -22 -28 -19 -7 -28 -3 -50 22
-23 26 -30 29 -42 18 -22 -17 -74 -5 -109 25 -22 19 -26 30 -21 50 5 21 2 27
-15 32 -11 3 -21 7 -21 8 0 8 29 71 36 78 16 16 54 6 70 -19z"/>
<path d="M6056 8159 c-26 -28 -27 -31 -11 -43 16 -12 15 -14 -16 -21 -19 -4
-42 -7 -51 -6 -10 1 -18 -3 -18 -8 0 -6 -9 -11 -20 -11 -27 0 -25 -17 6 -43
l25 -22 -38 -39 c-25 -26 -34 -40 -25 -43 10 -4 10 -9 -3 -23 -10 -11 -15 -30
-13 -46 2 -23 8 -29 30 -31 14 -1 44 -11 67 -22 22 -12 48 -21 58 -21 10 0 31
-7 46 -15 61 -32 153 -26 182 11 6 7 33 18 60 25 28 6 64 17 80 24 29 13 154
13 175 0 5 -3 20 1 32 9 32 20 178 13 213 -10 36 -23 142 -30 179 -11 l28 15
-22 12 c-16 9 -25 9 -33 1 -14 -14 -40 -15 -32 -1 3 5 0 7 -9 4 -8 -3 -25 1
-37 10 l-22 15 27 11 c15 5 33 10 41 10 7 0 23 9 36 19 22 18 23 22 11 53 -8
21 -9 34 -2 36 5 2 10 12 10 22 0 14 -12 23 -40 31 -51 15 -88 53 -71 72 9 12
6 16 -16 20 -15 3 -30 2 -33 -3 -3 -4 -14 -7 -25 -7 -11 0 -34 0 -52 -1 -30
-2 -32 -3 -26 -37 5 -32 4 -35 -19 -35 -14 0 -42 11 -62 25 -20 14 -48 25 -61
25 -13 0 -27 5 -30 10 -10 15 -35 12 -35 -5 0 -8 -2 -15 -4 -15 -11 0 -86 45
-86 51 0 13 -53 21 -165 24 -60 2 -130 7 -155 9 -41 5 -48 3 -74 -25z m324
-119 c25 -6 63 -17 85 -24 22 -8 74 -17 115 -20 106 -10 172 -26 167 -39 -2
-7 -19 -20 -38 -30 -29 -16 -49 -18 -134 -13 -55 3 -113 8 -130 10 -16 3 -76
8 -133 12 -84 6 -105 10 -112 25 -19 35 -11 55 33 76 43 22 65 22 147 3z"/>
<path d="M5980 7514 c0 -9 -7 -22 -17 -29 -9 -7 -24 -32 -33 -56 -31 -79 -80
-94 -237 -74 -78 10 -119 2 -175 -35 -43 -29 -45 -29 -93 -15 -80 25 -102 20
-148 -29 -51 -52 -75 -66 -119 -66 -56 0 -63 -11 -63 -92 1 -96 15 -198 28
-198 27 0 76 25 80 42 3 10 10 18 16 18 24 0 39 -57 41 -155 4 -142 4 -148 14
-164 6 -9 6 -16 -1 -18 -6 -2 -7 -21 -2 -51 4 -26 5 -70 3 -98 -4 -49 -2 -53
40 -99 38 -41 49 -47 71 -41 54 14 74 -34 25 -59 -39 -20 -41 -60 -5 -77 21
-9 30 -7 65 17 22 15 40 31 40 36 0 4 10 11 23 15 38 12 104 73 110 102 8 34
-31 72 -74 72 -59 0 -146 71 -162 133 -19 74 -19 82 4 95 18 12 23 12 30 0 7
-10 9 -10 9 2 0 21 -30 64 -62 89 -36 29 -50 115 -22 136 20 15 125 11 170 -6
19 -7 143 1 287 17 32 4 58 1 80 -9 17 -8 55 -18 82 -21 85 -10 115 -18 115
-32 0 -8 10 -14 24 -14 14 0 27 -4 30 -9 4 -5 20 -5 41 2 28 8 38 7 52 -5 10
-8 26 -18 35 -21 10 -3 28 -22 40 -41 26 -41 48 -47 48 -13 0 12 7 44 15 71
24 78 20 168 -10 227 -23 44 -27 48 -40 35 -8 -8 -15 -20 -15 -26 0 -7 -9 -6
-27 4 -66 36 -111 51 -149 49 -35 -1 -43 3 -58 28 -9 16 -23 29 -29 29 -15 -1
-58 -36 -56 -47 3 -20 -2 -34 -11 -28 -6 3 -6 15 0 30 8 20 4 30 -27 65 -35
38 -37 39 -59 25 -13 -8 -35 -15 -49 -15 -14 0 -38 -6 -53 -13 -39 -19 -192
-30 -208 -15 -10 10 34 66 59 74 12 4 73 8 136 8 l113 1 44 48 c48 53 68 106
54 142 -7 19 -6 22 8 20 9 -2 20 -4 24 -4 4 -1 16 -10 27 -22 12 -14 21 -17
26 -9 8 13 -69 90 -90 90 -8 0 -15 -7 -15 -16z"/>
<path d="M3768 3998 c-7 -7 -24 -14 -38 -16 -26 -3 -85 -30 -190 -87 -35 -19
-69 -35 -75 -35 -23 -1 -47 -29 -40 -47 5 -10 9 -24 11 -31 4 -21 16 -29 21
-14 3 6 13 12 24 12 26 0 26 -46 0 -60 -27 -14 -41 -13 -41 4 0 11 -6 12 -37
1 -33 -12 -44 -11 -88 7 -27 11 -54 20 -60 20 -18 1 -85 -31 -85 -41 0 -5 -14
-12 -31 -16 -16 -4 -68 -25 -115 -46 -62 -30 -84 -45 -84 -59 0 -10 -4 -22
-10 -25 -6 -4 -1 -23 12 -48 12 -23 21 -47 20 -54 -8 -37 25 -25 253 96 128
68 161 91 146 101 -16 9 4 31 22 24 9 -3 14 -10 11 -15 -10 -17 19 -9 80 22
33 18 139 72 235 120 95 48 176 91 179 94 3 3 0 11 -6 17 -9 9 -13 7 -18 -5
-3 -9 -11 -17 -18 -17 -6 0 -29 -9 -49 -19 -40 -21 -40 -21 -51 32 -7 31 16
74 48 87 16 7 17 9 4 9 -9 1 -23 -5 -30 -11z"/>
<path d="M6960 12790 c0 -5 12 -10 26 -10 24 0 25 -3 19 -27 -3 -15 -11 -30
-16 -34 -6 -3 -3 -11 6 -19 14 -12 13 -16 -11 -41 -59 -62 23 -82 84 -21 11
11 26 22 33 24 27 9 -10 39 -40 32 -20 -4 -23 -3 -11 5 8 6 15 16 15 23 0 8
12 13 30 13 17 0 44 9 60 20 l30 19 -40 7 c-22 4 -47 6 -57 3 -9 -3 -19 0 -23
6 -8 13 -105 13 -105 0z"/>
<path d="M8247 8138 c-36 -48 -60 -100 -100 -218 -56 -164 -93 -342 -136 -655
-11 -80 -8 -518 4 -552 4 -13 15 -23 25 -23 19 0 88 44 107 69 15 20 16 75 3
121 -15 49 -20 290 -9 380 27 212 42 301 74 422 42 163 51 190 105 301 48 96
47 107 -8 163 -32 31 -36 30 -65 -8z"/>
</g>
</svg>
